inDegrees=no
num_controls=7
num_derivatives=13
num_iterations=124
num_multipliers=7
num_parameters=0
num_slacks=7
num_states=26
objective=0.448197
objective_accelerations=0.049157
objective_balance=0.007490
objective_effort=0.036480
objective_height=0.350126
objective_ligament=0.004944
solver_duration=1786.525729
status=Solve_Succeeded
success=true
DataType=double
version=3
OpenSimVersion=4.5
endheader
time	/jointset/ground_pelvis/pelvis_tilt/value	/jointset/ground_pelvis/pelvis_tx/value	/jointset/ground_pelvis/pelvis_ty/value	/jointset/hip_l/hip_flexion_l/value	/jointset/hip_l/hip_adduction_l/value	/jointset/hip_l/hip_rotation_l/value	/jointset/back/lumbar_extension/value	/jointset/patellofemoral_l/patellar_flexion_l/value	/jointset/knee_l/knee_flexion_l/value	/jointset/knee_l/knee_adduction_l/value	/jointset/knee_l/knee_rotation_l/value	/jointset/ankle_l/ankle_angle_l/value	/jointset/subtalar_l/subtalar_angle_l/value	/jointset/ground_pelvis/pelvis_tilt/speed	/jointset/ground_pelvis/pelvis_tx/speed	/jointset/ground_pelvis/pelvis_ty/speed	/jointset/hip_l/hip_flexion_l/speed	/jointset/hip_l/hip_adduction_l/speed	/jointset/hip_l/hip_rotation_l/speed	/jointset/back/lumbar_extension/speed	/jointset/patellofemoral_l/patellar_flexion_l/speed	/jointset/knee_l/knee_flexion_l/speed	/jointset/knee_l/knee_adduction_l/speed	/jointset/knee_l/knee_rotation_l/speed	/jointset/ankle_l/ankle_angle_l/speed	/jointset/subtalar_l/subtalar_angle_l/speed	/forceset/tau_hip_flexion_l	/forceset/tau_hip_adduction_l	/forceset/tau_hip_rotation_l	/forceset/tau_knee_flexion_l	/forceset/tau_ankle_angle_l	/forceset/tau_subtalar_angle_l	/forceset/tau_lumbar_extension	lambda_cid13_p0	lambda_cid13_p1	lambda_cid13_p2	lambda_cid13_p3	lambda_cid13_p4	lambda_cid13_p5	lambda_cid14_p0	/jointset/ground_pelvis/pelvis_tilt/accel	/jointset/ground_pelvis/pelvis_tx/accel	/jointset/ground_pelvis/pelvis_ty/accel	/jointset/hip_l/hip_flexion_l/accel	/jointset/hip_l/hip_adduction_l/accel	/jointset/hip_l/hip_rotation_l/accel	/jointset/back/lumbar_extension/accel	/jointset/patellofemoral_l/patellar_flexion_l/accel	/jointset/knee_l/knee_flexion_l/accel	/jointset/knee_l/knee_adduction_l/accel	/jointset/knee_l/knee_rotation_l/accel	/jointset/ankle_l/ankle_angle_l/accel	/jointset/subtalar_l/subtalar_angle_l/accel	gamma_cid13_p0	gamma_cid13_p1	gamma_cid13_p2	gamma_cid13_p3	gamma_cid13_p4	gamma_cid13_p5	gamma_cid14_p0
0	-0.1598223821489422	0.05844643012459504	0.8979872103265512	0.3774924667018715	-0.2593049459263422	-0.2701142821538454	-0.01265067647494873	0.0322364824372156	0.03223648243721463	-0.174532904178371	0.171802058655565	-0.04231377076293093	-0.009462528249725913	0	0	0	0	0	0	0	0	0	0	0	0	0	0.1502985407067672	-0.08027443303722549	-0.05102673237546223	-0.3046206013169959	0.3066919608104059	-0.04311933732266731	-0.09441510742809149	56.27937556347129	2.750034593019055	6.152612308347082	-4.125327765546691	-589.8798464019718	-72.47693006004253	-38.98847144087389	-4.261768168024458	-2.144905721921757	-1.10290927779497	12.39108930426823	-1.232210428992979	2.980295215023276	-5.762824246548666	8.952287184417305	8.95228718441704	0.06826837949039111	0.1175782729641577	0.9025484664230219	-1.051453918655572	-3.332113033336478e-08	7.318699133793375e-08	8.287330134072901e-08	8.673153285947429e-09	3.154663972635998e-08	-1.685752019439739e-08	-1.263072831237968e-08
0.01	-0.160027914706698	0.05833996873629083	0.8979332749692774	0.378097169135984	-0.2593662823818439	-0.2699657472414036	-0.01293974039947516	0.0326740547851886	0.03267405478518819	-0.1745314103432881	0.1718050876454524	-0.04227171267917335	-0.009515526074743029	-0.04084217925825959	-0.02125044820376168	-0.0107487495476118	0.1203995259435142	-0.01219765845992006	0.0295764738174159	-0.05741096755609472	0.08714487163026495	0.08714487163026065	0.0003171741656559229	0.0006042556277246968	0.008321116643882591	-0.01055126853513169	0.1413100771246027	-0.08918060350062601	-0.04895595123126088	-0.2919076858332011	0.2863342768592023	-0.02662933320632679	-0.08756825466722538	50.34058225022127	-3.115517017846804	6.795077897862359	-0.6829855412814636	-590.7144889143343	-83.34542954529608	-39.00108066157351	-3.955799685839021	-2.108838216446737	-1.05510319785712	11.78323382475806	-1.203119229601187	2.926736837924824	-5.669960407725689	8.540149983833707	8.540149983833397	0.0162248193340398	0.0316088548936202	0.783315885370098	-1.049739590564987	-5.02550825333208e-08	9.985503064892956e-08	1.072116886114261e-07	2.051044147816265e-08	-6.652474343205342e-08	8.952289735847147e-09	-1.727191526747054e-08
0.02	-0.1606339404332595	0.05802225809658027	0.897773003035605	0.3798896367466042	-0.2595475105569668	-0.269525364916223	-0.01379085947907986	0.03397198841576515	0.03397198841576501	-0.1745261881896555	0.17181411112106	-0.04214915890457711	-0.009672591839036059	-0.08009863376100826	-0.04224985028127215	-0.02126731527974232	0.2375530353016282	-0.02397834392422804	0.05836948254779482	-0.1124110310156192	0.1720722565206348	0.1720722565206345	0.000745663700543914	0.001198897144129619	0.01609913816773392	-0.02081358785518514	0.1323216135424391	-0.09808677396402533	-0.0468851700870634	-0.2791947703494052	0.2659765929079997	-0.0101393290899848	-0.0807214019063591	44.477815295562	-8.994118720456953	7.439328772394488	2.646342809736815	-590.3712302531784	-94.11204157408557	-39.0383893574622	-3.94462321692226	-2.09469649667153	-1.056872514698718	11.74188598718817	-1.14881582987061	2.823602197615877	-5.280643427234608	8.508789836438289	8.508789836439673	0.09053145333671324	0.1156554507002099	0.7939294424167411	-0.9936640756399784	-6.718903473327682e-08	1.265230699599254e-07	1.315500758821232e-07	3.234772967037786e-08	-1.645961265904668e-07	3.476209966609168e-08	-2.191310222256141e-08
0.03	-0.1616256912589293	0.05749677222926343	0.8975084880328389	0.3828375310620603	-0.2598442947119503	-0.2688009511247217	-0.01517978844534204	0.03610821762545026	0.03610821762545145	-0.1745160787108186	0.171829076349825	-0.04195031684177898	-0.009930406710908888	-0.1180596290987943	-0.06270685094273053	-0.03161224745910222	0.3514387377382953	-0.0353025240636313	0.08638440902618019	-0.1649964898396298	0.254792000712734	0.2547920007127407	0.001276112837486642	0.001790649871754513	0.02369380660886374	-0.03066970482314539	0.1274490469188916	-0.09248855316006051	-0.04635864012121276	-0.276007169687053	0.2645786694405117	-0.01348572904705123	-0.07649753175829359	43.93948784904948	-7.561253199386613	7.341942485227298	1.997404959143138	-590.3922262009717	-90.44898892308592	-39.09923416372253	-3.693060255748021	-2.000124497656607	-1.019821212876371	11.12383759982073	-1.112844976173003	2.771089846930447	-5.190756250375249	8.096333406404677	8.096333406404886	0.03431460876241458	0.03039398415907212	0.7459117427922908	-0.969667593916285	-8.866137119166598e-08	1.348595092747668e-07	1.618728200935024e-07	5.133666148762807e-08	-2.72193667220325e-07	3.286963602946691e-08	-2.742491042455545e-08
